<?xml version="1.0" encoding="UTF-8"?>
<svg width="26px" height="26px" viewBox="0 0 26 26" version="1.1" xmlns="http://www.w3.org/2000/svg" xmlns:xlink="http://www.w3.org/1999/xlink">
    <!-- Generator: Sketch 47.1 (45422) - http://www.bohemiancoding.com/sketch -->
    <title>magnifier</title>
    <desc>Created with Sketch.</desc>
    <defs></defs>
    <g id="Page-1" stroke="none" stroke-width="1" fill="none" fill-rule="evenodd">
        <g id="Home" transform="translate(-1019.000000, -212.000000)" fill-rule="nonzero" fill="#FFFFFF">
            <g id="Search-Bar" transform="translate(380.000000, 196.000000)">
                <g id="BTN" transform="translate(622.000000, 0.000000)">
                    <g id="magnifier" transform="translate(17.000000, 16.000000)">
                        <path d="M25.2550002,21.6599349 L19.0331959,15.4375 C18.1061435,16.8793069 16.8792773,18.1055833 15.4375,19.0327107 L21.6598073,25.2551456 C22.6531497,26.2482848 24.2637259,26.2482848 25.2549443,25.2551456 C26.2483426,24.2636274 26.2483426,22.6530182 25.2550002,21.6599349 Z" id="Shape"></path>
                        <path d="M19.5,9.75010717 C19.5,4.36575242 15.1344859,0 9.75005358,0 C4.36572843,0 0,4.36575242 0,9.75010717 C0,15.1344619 4.36572843,19.5 9.75005358,19.5 C15.1344859,19.5 19.5,15.1344619 19.5,9.75010717 Z M9.75005358,17.0624062 C5.71767727,17.0624062 2.43758038,13.7825592 2.43758038,9.75016076 C2.43758038,5.71776228 5.71767727,2.43764736 9.75005358,2.43764736 C13.7823227,2.43764736 17.0626875,5.71776228 17.0626875,9.75016076 C17.0626875,13.7825592 13.7823227,17.0624062 9.75005358,17.0624062 Z" id="Shape"></path>
                        <path d="M4.0625,9.75 L5.68733159,9.75 C5.68733159,7.50996983 7.51000231,5.68747703 9.75,5.68747703 L9.75,4.0625 C6.61431403,4.0625 4.0625,6.61428999 4.0625,9.75 Z" id="Shape"></path>
                    </g>
                </g>
            </g>
        </g>
    </g>
</svg>